# Blender 5.0.0
# www.blender.org
mtllib Tangram.mtl
o big_triangle_1
v 0.001381 0.941505 -0.013844
v -4.045764 0.941505 -4.060134
v 4.048526 0.941505 -4.060134
v 0.001381 -0.144858 -0.013844
v -4.045764 -0.144858 -4.060134
v 4.048526 -0.144858 -4.060134
v 0.001381 -0.144858 -0.013844
v 0.001381 0.941505 -0.013844
v -4.045764 -0.144858 -4.060134
v -4.045764 0.941505 -4.060134
v 4.048526 -0.144858 -4.060134
v 4.048526 0.941505 -4.060134
vn -0.0000 1.0000 -0.0000
vn -0.0000 -1.0000 -0.0000
vn -0.0000 -0.0000 1.0000
vn -0.9239 -0.0000 -0.3826
vn 0.9239 -0.0000 -0.3826
vt 0.000000 0.000000
vt 1.000000 0.000000
vt 0.500000 0.000000
vt 0.000000 1.000000
vt 0.333333 1.000000
vt 0.333333 0.000000
vt 0.666667 1.000000
vt 0.666667 0.000000
vt 1.000000 1.000000
s 0
usemtl SVGMat.001
f 1/1/1 3/2/1 2/3/1
f 4/1/2 5/3/2 6/2/2
s 1
f 8/4/3 10/5/4 9/6/4 7/1/3
f 10/5/4 12/7/5 11/8/5 9/6/4
f 12/7/5 8/9/3 7/2/3 11/8/5
o big_triangle_2
v -4.068893 0.950883 4.031806
v -4.068893 0.950883 -4.060776
v -0.021748 0.950883 -0.014485
v -4.068893 -0.135479 4.031806
v -4.068893 -0.135479 -4.060776
v -0.021748 -0.135479 -0.014485
v -4.068893 -0.135479 4.031806
v -4.068893 0.950883 4.031806
v -4.068893 -0.135479 -4.060776
v -4.068893 0.950883 -4.060776
v -0.021748 -0.135479 -0.014485
v -0.021748 0.950883 -0.014485
vn -0.0000 1.0000 -0.0000
vn -0.0000 -1.0000 -0.0000
vn -0.3827 -0.0000 0.9239
vn -0.3827 -0.0000 -0.9239
vn 1.0000 -0.0000 -0.0000
vt 0.000000 0.000000
vt 1.000000 0.000000
vt 0.500000 0.000000
vt 0.000000 1.000000
vt 0.333333 1.000000
vt 0.333333 0.000000
vt 0.666667 1.000000
vt 0.666667 0.000000
vt 1.000000 1.000000
s 0
usemtl SVGMat.002
f 13/10/6 15/11/6 14/12/6
f 16/10/7 17/12/7 18/11/7
s 1
f 20/13/8 22/14/9 21/15/9 19/10/8
f 22/14/9 24/16/10 23/17/10 21/15/9
f 24/16/10 20/18/8 19/11/8 23/17/10
o paralellogram
v 4.050101 0.950883 -0.014485
v 2.026528 0.950883 2.008660
v 2.026528 0.950883 -2.037631
v 4.050101 0.950883 -4.060776
v 4.050101 -0.135479 -0.014485
v 2.026528 -0.135479 2.008660
v 2.026528 -0.135479 -2.037631
v 4.050101 -0.135479 -4.060776
v 4.050101 -0.135479 -0.014485
v 4.050101 0.950883 -0.014485
v 2.026528 -0.135479 2.008660
v 2.026528 0.950883 2.008660
v 2.026528 -0.135479 -2.037631
v 2.026528 0.950883 -2.037631
v 4.050101 -0.135479 -4.060776
v 4.050101 0.950883 -4.060776
vn -0.0000 1.0000 -0.0000
vn -0.0000 -1.0000 -0.0000
vn 0.9239 -0.0000 0.3827
vn -0.3827 -0.0000 0.9239
vn -0.9239 -0.0000 -0.3827
vn 0.3827 -0.0000 -0.9239
vt 0.666667 0.000000
vt 0.000000 0.000000
vt 1.000000 0.000000
vt 0.333333 0.000000
vt 0.000000 1.000000
vt 0.250000 1.000000
vt 0.250000 0.000000
vt 0.500000 1.000000
vt 0.500000 0.000000
vt 0.750000 1.000000
vt 0.750000 0.000000
vt 1.000000 1.000000
s 0
usemtl SVGMat.003
f 27/19/11 25/20/11 28/21/11
f 26/22/11 25/20/11 27/19/11
f 31/19/12 32/21/12 29/20/12
f 30/22/12 31/19/12 29/20/12
s 1
f 34/23/13 36/24/14 35/25/14 33/20/13
f 36/24/14 38/26/15 37/27/15 35/25/14
f 38/26/15 40/28/16 39/29/16 37/27/15
f 40/28/16 34/30/13 33/21/13 39/29/16
o small_triangle_1
v 2.024954 0.950883 2.008660
v 0.001381 0.950883 -0.014485
v 2.024954 0.950883 -2.037631
v 2.024954 -0.135479 2.008660
v 0.001381 -0.135479 -0.014485
v 2.024954 -0.135479 -2.037631
v 2.024954 -0.135479 2.008660
v 2.024954 0.950883 2.008660
v 0.001381 -0.135479 -0.014485
v 0.001381 0.950883 -0.014485
v 2.024954 -0.135479 -2.037631
v 2.024954 0.950883 -2.037631
vn -0.0000 1.0000 -0.0000
vn -0.0000 -1.0000 -0.0000
vn 0.3827 -0.0000 0.9239
vn -1.0000 -0.0000 -0.0000
vn 0.3827 -0.0000 -0.9239
vt 0.500000 0.000000
vt 0.000000 0.000000
vt 1.000000 0.000000
vt 0.000000 1.000000
vt 0.333333 1.000000
vt 0.333333 0.000000
vt 0.666667 1.000000
vt 0.666667 0.000000
vt 1.000000 1.000000
s 0
usemtl SVGMat.004
f 42/31/17 41/32/17 43/33/17
f 45/31/18 46/33/18 44/32/18
s 1
f 48/34/19 50/35/20 49/36/20 47/32/19
f 50/35/20 52/37/21 51/38/21 49/36/20
f 52/37/21 48/39/19 47/33/19 51/38/21
o square
v -2.022191 0.950883 1.996388
v 0.001381 0.950883 -0.026757
v 2.024954 0.950883 1.996388
v 0.001381 0.950883 4.019534
v -2.022191 -0.135479 1.996388
v 0.001381 -0.135479 -0.026757
v 2.024954 -0.135479 1.996388
v 0.001381 -0.135479 4.019534
v -2.022191 -0.135479 1.996388
v -2.022191 0.950883 1.996388
v 0.001381 -0.135479 -0.026757
v 0.001381 0.950883 -0.026757
v 2.024954 -0.135479 1.996388
v 2.024954 0.950883 1.996388
v 0.001381 -0.135479 4.019534
v 0.001381 0.950883 4.019534
vn -0.0000 1.0000 -0.0000
vn -0.0000 -1.0000 -0.0000
vn -1.0000 -0.0000 -0.0000
vn -0.0000 -0.0000 -1.0000
vn 1.0000 -0.0000 -0.0000
vn -0.0000 -0.0000 1.0000
vt 0.000000 0.000000
vt 0.666667 0.000000
vt 0.333333 0.000000
vt 1.000000 0.000000
vt 0.000000 1.000000
vt 0.250000 1.000000
vt 0.250000 0.000000
vt 0.500000 1.000000
vt 0.500000 0.000000
vt 0.750000 1.000000
vt 0.750000 0.000000
vt 1.000000 1.000000
s 0
usemtl SVGMat.005
f 53/40/22 55/41/22 54/42/22
f 56/43/22 55/41/22 53/40/22
f 57/40/23 58/42/23 59/41/23
f 60/43/23 57/40/23 59/41/23
s 1
f 62/44/24 64/45/25 63/46/25 61/40/24
f 64/45/25 66/47/26 65/48/26 63/46/25
f 66/47/26 68/49/27 67/50/27 65/48/26
f 68/49/27 62/51/24 61/43/24 67/50/27
o small_triangle_2
v 0.001381 0.950883 4.013301
v -4.045764 0.950883 4.013301
v -2.022191 0.950883 1.990156
v 0.001381 -0.135479 4.013301
v -4.045764 -0.135479 4.013301
v -2.022191 -0.135479 1.990156
v 0.001381 -0.135479 4.013301
v 0.001381 0.950883 4.013301
v -4.045764 -0.135479 4.013301
v -4.045764 0.950883 4.013301
v -2.022191 -0.135479 1.990156
v -2.022191 0.950883 1.990156
vn -0.0000 1.0000 -0.0000
vn -0.0000 -1.0000 -0.0000
vn 0.9239 -0.0000 0.3826
vn -0.9239 -0.0000 0.3826
vn -0.0000 -0.0000 -1.0000
vt 0.500000 0.000000
vt 0.000000 0.000000
vt 1.000000 0.000000
vt 0.000000 1.000000
vt 0.333333 1.000000
vt 0.333333 0.000000
vt 0.666667 1.000000
vt 0.666667 0.000000
vt 1.000000 1.000000
s 0
usemtl SVGMat.006
f 70/52/28 69/53/28 71/54/28
f 73/52/29 74/54/29 72/53/29
s 1
f 76/55/30 78/56/31 77/57/31 75/53/30
f 78/56/31 80/58/32 79/59/32 77/57/31
f 80/58/32 76/60/30 75/54/30 79/59/32
o medium_triangle
v 4.032716 0.950883 4.031806
v -0.014429 0.950883 4.031806
v 4.032716 0.950883 -0.014485
v 4.032716 -0.135479 4.031806
v -0.014429 -0.135479 4.031806
v 4.032716 -0.135479 -0.014485
v 4.032716 -0.135479 4.031806
v 4.032716 0.950883 4.031806
v -0.014429 -0.135479 4.031806
v -0.014429 0.950883 4.031806
v 4.032716 -0.135479 -0.014485
v 4.032716 0.950883 -0.014485
vn -0.0000 1.0000 -0.0000
vn -0.0000 -1.0000 -0.0000
vn 0.7071 -0.0000 0.7071
vn -0.9239 -0.0000 0.3826
vn 0.3827 -0.0000 -0.9239
vt 0.500000 0.000000
vt 0.000000 0.000000
vt 1.000000 0.000000
vt 0.000000 1.000000
vt 0.333333 1.000000
vt 0.333333 0.000000
vt 0.666667 1.000000
vt 0.666667 0.000000
vt 1.000000 1.000000
s 0
usemtl SVGMat.007
f 82/61/33 81/62/33 83/63/33
f 85/61/34 86/63/34 84/62/34
s 1
f 88/64/35 90/65/36 89/66/36 87/62/35
f 90/65/36 92/67/37 91/68/37 89/66/36
f 92/67/37 88/69/35 87/63/35 91/68/37
